{
	"asset":{
		"generator":"Khronos glTF Blender I/O v4.4.55",
		"version":"2.0"
	},
	"scene":0,
	"scenes":[
		{
			"extras":{
				"b2gd_data__":{
					"props":{
						"geometry":{}
					},
					"geometry":{
						"collision_data":{},
						"mesh_data":{},
						"navigation_data":{}
					}
				},
				"now common now":1.0
			},
			"name":"Scene",
			"nodes":[
				5,
				9,
				14,
				17,
				21,
				25,
				28
			]
		}
	],
	"nodes":[
		{
			"extras":{
				"b2gd_data__":{
					"mode":1,
					"geometry/mesh/layers_11_20":1
				}
			},
			"mesh":0,
			"name":"layers 1, 11",
			"translation":[
				6,
				0,
				0
			]
		},
		{
			"extras":{
				"b2gd_data__":{
					"mode":1,
					"geometry/mesh/layers_1_10":7,
					"geometry/mesh/layers_11_20":16
				}
			},
			"mesh":1,
			"name":"layers 1, 2, 3, 15"
		},
		{
			"extras":{
				"b2gd_data__":{
					"mode":1,
					"geometry/mesh/layers_1_10":0,
					"geometry/mesh/layers_11_20":32
				}
			},
			"mesh":2,
			"name":"layers 16",
			"translation":[
				12,
				0,
				0
			]
		},
		{
			"extras":{
				"b2gd_data__":{
					"mode":1,
					"geometry/mesh/layers_1_10":292,
					"geometry/mesh/layers_11_20":146
				}
			},
			"mesh":3,
			"name":"layers 3, 6, 9, 12, 15, 18",
			"translation":[
				9,
				0,
				0
			]
		},
		{
			"extras":{
				"b2gd_data__":{
					"mode":1,
					"geometry/mesh/layers_1_10":136,
					"geometry/mesh/layers_11_20":546
				}
			},
			"mesh":4,
			"name":"layers 4, 8, 12, 16, 20",
			"translation":[
				3,
				0,
				0
			]
		},
		{
			"children":[
				0,
				1,
				2,
				3,
				4
			],
			"name":"Layers"
		},
		{
			"extras":{
				"b2gd_data__":{
					"mode":1,
					"geometry/mesh/transparency":0.10000000149011612
				}
			},
			"mesh":5,
			"name":"transparency 0.1",
			"translation":[
				-3,
				0,
				0
			]
		},
		{
			"extras":{
				"b2gd_data__":{
					"mode":1,
					"geometry/mesh/transparency":0.4560000002384186
				}
			},
			"mesh":6,
			"name":"transparency 0.456"
		},
		{
			"extras":{
				"b2gd_data__":{
					"mode":1,
					"geometry/mesh/transparency":1.0
				}
			},
			"mesh":7,
			"name":"transparency 1",
			"translation":[
				3,
				0,
				0
			]
		},
		{
			"children":[
				6,
				7,
				8
			],
			"name":"Transparency",
			"translation":[
				3,
				0,
				4
			]
		},
		{
			"extras":{
				"b2gd_data__":{
					"mode":1,
					"geometry/mesh/cast_shadow":2
				}
			},
			"mesh":8,
			"name":"Double-sided",
			"translation":[
				1.5,
				0,
				0
			]
		},
		{
			"extras":{
				"b2gd_data__":{
					"mode":1,
					"geometry/mesh/cast_shadow":0
				}
			},
			"mesh":9,
			"name":"Shadow off",
			"translation":[
				-4.5,
				0,
				0
			]
		},
		{
			"mesh":10,
			"name":"Shadow on",
			"translation":[
				-1.5,
				0,
				0
			]
		},
		{
			"extras":{
				"b2gd_data__":{
					"mode":1,
					"geometry/mesh/cast_shadow":3
				}
			},
			"mesh":11,
			"name":"Shadows only",
			"translation":[
				4.5,
				0,
				0
			]
		},
		{
			"children":[
				10,
				11,
				12,
				13
			],
			"name":"Cast Shadow",
			"translation":[
				4.5,
				0,
				-4
			]
		},
		{
			"extras":{
				"b2gd_data__":{
					"mode":1,
					"geometry/mesh/ignore_occlusion_culling":false
				}
			},
			"mesh":12,
			"name":"ignore occlusion culling off",
			"translation":[
				1.5,
				0,
				0
			]
		},
		{
			"extras":{
				"b2gd_data__":{
					"mode":1,
					"geometry/mesh/ignore_occlusion_culling":true
				}
			},
			"mesh":13,
			"name":"ignore occlusion culling on",
			"translation":[
				-1.5,
				0,
				0
			]
		},
		{
			"children":[
				15,
				16
			],
			"name":"Ignore Occlusion Culling",
			"translation":[
				1.5,
				0,
				8
			]
		},
		{
			"extras":{
				"b2gd_data__":{
					"mode":1,
					"geometry/mesh/gi_mode":0
				}
			},
			"mesh":14,
			"name":"gi disabled",
			"translation":[
				-3,
				0,
				0
			]
		},
		{
			"extras":{
				"b2gd_data__":{
					"mode":1,
					"geometry/mesh/gi_mode":2
				}
			},
			"mesh":15,
			"name":"gi dynamic",
			"rotation":[
				-0.029879918321967125,
				-0.23683832585811615,
				0.34527453780174255,
				0.907634437084198
			],
			"translation":[
				3,
				0,
				0
			]
		},
		{
			"extras":{
				"b2gd_data__":{
					"mode":1,
					"geometry/mesh/gi_mode":1
				}
			},
			"mesh":16,
			"name":"gi static",
			"rotation":[
				-0.7979514002799988,
				0.4199727475643158,
				-0.4251647889614105,
				0.07830307632684708
			]
		},
		{
			"children":[
				18,
				19,
				20
			],
			"name":"GI mode",
			"translation":[
				-8,
				0,
				0
			]
		},
		{
			"extras":{
				"b2gd_data__":{
					"mode":1,
					"geometry/mesh/gi_lightmap_textel_scale":0.15000000596046448
				}
			},
			"mesh":17,
			"name":"lightmap textel 0.15"
		},
		{
			"extras":{
				"b2gd_data__":{
					"mode":1
				}
			},
			"mesh":18,
			"name":"lightmap textel 1.0",
			"translation":[
				-3,
				0,
				0
			]
		},
		{
			"extras":{
				"b2gd_data__":{
					"mode":1,
					"geometry/mesh/gi_lightmap_textel_scale":7.7769999504089355
				}
			},
			"mesh":19,
			"name":"lightmap textel 7.777",
			"translation":[
				3,
				0,
				0
			]
		},
		{
			"children":[
				22,
				23,
				24
			],
			"name":"Lightmap Textel Scale",
			"translation":[
				-8,
				0,
				4
			]
		},
		{
			"extras":{
				"b2gd_data__":{
					"mode":1,
					"geometry/mesh":false,
					"geometry/mesh_remove_mode":1
				}
			},
			"mesh":20,
			"name":"Geometry Disabled Free",
			"translation":[
				-1.5,
				0,
				0
			]
		},
		{
			"extras":{
				"b2gd_data__":{
					"mode":1,
					"geometry/mesh":false
				}
			},
			"mesh":21,
			"name":"Geometry Disabled Replace",
			"translation":[
				1.5,
				0,
				0
			]
		},
		{
			"children":[
				26,
				27
			],
			"name":"Geometry Disabled",
			"translation":[
				-6.5,
				0,
				8
			]
		}
	],
	"materials":[
		{
			"doubleSided":true,
			"name":"Material",
			"pbrMetallicRoughness":{
				"baseColorFactor":[
					0.800000011920929,
					0.800000011920929,
					0.800000011920929,
					1
				],
				"metallicFactor":0,
				"roughnessFactor":0.5
			}
		}
	],
	"meshes":[
		{
			"name":"Cube.002",
			"primitives":[
				{
					"attributes":{
						"POSITION":0,
						"NORMAL":1,
						"TEXCOORD_0":2
					},
					"indices":3,
					"material":0
				}
			]
		},
		{
			"name":"Cube",
			"primitives":[
				{
					"attributes":{
						"POSITION":4,
						"NORMAL":5,
						"TEXCOORD_0":6
					},
					"indices":3,
					"material":0
				}
			]
		},
		{
			"name":"Cube.004",
			"primitives":[
				{
					"attributes":{
						"POSITION":7,
						"NORMAL":8,
						"TEXCOORD_0":9
					},
					"indices":3,
					"material":0
				}
			]
		},
		{
			"name":"Cube.003",
			"primitives":[
				{
					"attributes":{
						"POSITION":10,
						"NORMAL":11,
						"TEXCOORD_0":12
					},
					"indices":3,
					"material":0
				}
			]
		},
		{
			"name":"Cube.001",
			"primitives":[
				{
					"attributes":{
						"POSITION":13,
						"NORMAL":14,
						"TEXCOORD_0":15
					},
					"indices":3,
					"material":0
				}
			]
		},
		{
			"name":"Suzanne",
			"primitives":[
				{
					"attributes":{
						"POSITION":16,
						"NORMAL":17,
						"TEXCOORD_0":18
					},
					"indices":19
				}
			]
		},
		{
			"name":"Suzanne.001",
			"primitives":[
				{
					"attributes":{
						"POSITION":20,
						"NORMAL":21,
						"TEXCOORD_0":22
					},
					"indices":19
				}
			]
		},
		{
			"name":"Suzanne.002",
			"primitives":[
				{
					"attributes":{
						"POSITION":23,
						"NORMAL":24,
						"TEXCOORD_0":25
					},
					"indices":19
				}
			]
		},
		{
			"name":"Cone.002",
			"primitives":[
				{
					"attributes":{
						"POSITION":26,
						"NORMAL":27,
						"TEXCOORD_0":28
					},
					"indices":29
				}
			]
		},
		{
			"name":"Cone",
			"primitives":[
				{
					"attributes":{
						"POSITION":30,
						"NORMAL":31,
						"TEXCOORD_0":32
					},
					"indices":29
				}
			]
		},
		{
			"name":"Cone.001",
			"primitives":[
				{
					"attributes":{
						"POSITION":33,
						"NORMAL":34,
						"TEXCOORD_0":35
					},
					"indices":29
				}
			]
		},
		{
			"name":"Cone.003",
			"primitives":[
				{
					"attributes":{
						"POSITION":36,
						"NORMAL":37,
						"TEXCOORD_0":38
					},
					"indices":29
				}
			]
		},
		{
			"name":"Cylinder.001",
			"primitives":[
				{
					"attributes":{
						"POSITION":39,
						"NORMAL":40,
						"TEXCOORD_0":41
					},
					"indices":42
				}
			]
		},
		{
			"name":"Cylinder",
			"primitives":[
				{
					"attributes":{
						"POSITION":43,
						"NORMAL":44,
						"TEXCOORD_0":45
					},
					"indices":42
				}
			]
		},
		{
			"name":"Icosphere",
			"primitives":[
				{
					"attributes":{
						"POSITION":46,
						"NORMAL":47,
						"TEXCOORD_0":48
					},
					"indices":49
				}
			]
		},
		{
			"name":"Icosphere.002",
			"primitives":[
				{
					"attributes":{
						"POSITION":50,
						"NORMAL":51,
						"TEXCOORD_0":52
					},
					"indices":49
				}
			]
		},
		{
			"name":"Icosphere.001",
			"primitives":[
				{
					"attributes":{
						"POSITION":53,
						"NORMAL":54,
						"TEXCOORD_0":55
					},
					"indices":49
				}
			]
		},
		{
			"extras":{
				"HoneyComb":true,
				"change":false,
				"rows":2,
				"cols":2,
				"diam":1.0,
				"edge":0.10000000149011612
			},
			"name":"HoneyComb.001",
			"primitives":[
				{
					"attributes":{
						"POSITION":56,
						"NORMAL":57
					},
					"indices":58
				}
			]
		},
		{
			"extras":{
				"HoneyComb":true,
				"change":false,
				"rows":2,
				"cols":2,
				"diam":1.0,
				"edge":0.10000000149011612
			},
			"name":"HoneyComb",
			"primitives":[
				{
					"attributes":{
						"POSITION":59,
						"NORMAL":60
					},
					"indices":58
				}
			]
		},
		{
			"extras":{
				"HoneyComb":true,
				"change":false,
				"rows":2,
				"cols":2,
				"diam":1.0,
				"edge":0.10000000149011612
			},
			"name":"HoneyComb.002",
			"primitives":[
				{
					"attributes":{
						"POSITION":61,
						"NORMAL":62
					},
					"indices":58
				}
			]
		},
		{
			"name":"Torus.001",
			"primitives":[
				{
					"attributes":{
						"POSITION":63,
						"NORMAL":64,
						"TEXCOORD_0":65
					},
					"indices":66
				}
			]
		},
		{
			"name":"Torus",
			"primitives":[
				{
					"attributes":{
						"POSITION":67,
						"NORMAL":68,
						"TEXCOORD_0":69
					},
					"indices":66
				}
			]
		}
	],
	"accessors":[
		{
			"bufferView":0,
			"componentType":5126,
			"count":24,
			"max":[
				1,
				1,
				1
			],
			"min":[
				-1,
				-1,
				-1
			],
			"type":"VEC3"
		},
		{
			"bufferView":1,
			"componentType":5126,
			"count":24,
			"type":"VEC3"
		},
		{
			"bufferView":2,
			"componentType":5126,
			"count":24,
			"type":"VEC2"
		},
		{
			"bufferView":3,
			"componentType":5123,
			"count":36,
			"type":"SCALAR"
		},
		{
			"bufferView":4,
			"componentType":5126,
			"count":24,
			"max":[
				1,
				1,
				1
			],
			"min":[
				-1,
				-1,
				-1
			],
			"type":"VEC3"
		},
		{
			"bufferView":5,
			"componentType":5126,
			"count":24,
			"type":"VEC3"
		},
		{
			"bufferView":6,
			"componentType":5126,
			"count":24,
			"type":"VEC2"
		},
		{
			"bufferView":7,
			"componentType":5126,
			"count":24,
			"max":[
				1,
				1,
				1
			],
			"min":[
				-1,
				-1,
				-1
			],
			"type":"VEC3"
		},
		{
			"bufferView":8,
			"componentType":5126,
			"count":24,
			"type":"VEC3"
		},
		{
			"bufferView":9,
			"componentType":5126,
			"count":24,
			"type":"VEC2"
		},
		{
			"bufferView":10,
			"componentType":5126,
			"count":24,
			"max":[
				1,
				1,
				1
			],
			"min":[
				-1,
				-1,
				-1
			],
			"type":"VEC3"
		},
		{
			"bufferView":11,
			"componentType":5126,
			"count":24,
			"type":"VEC3"
		},
		{
			"bufferView":12,
			"componentType":5126,
			"count":24,
			"type":"VEC2"
		},
		{
			"bufferView":13,
			"componentType":5126,
			"count":24,
			"max":[
				1,
				1,
				1
			],
			"min":[
				-1,
				-1,
				-1
			],
			"type":"VEC3"
		},
		{
			"bufferView":14,
			"componentType":5126,
			"count":24,
			"type":"VEC3"
		},
		{
			"bufferView":15,
			"componentType":5126,
			"count":24,
			"type":"VEC2"
		},
		{
			"bufferView":16,
			"componentType":5126,
			"count":1966,
			"max":[
				1.3671875,
				0.984375,
				0.8515625
			],
			"min":[
				-1.3671875,
				-0.984375,
				-0.8515625
			],
			"type":"VEC3"
		},
		{
			"bufferView":17,
			"componentType":5126,
			"count":1966,
			"type":"VEC3"
		},
		{
			"bufferView":18,
			"componentType":5126,
			"count":1966,
			"type":"VEC2"
		},
		{
			"bufferView":19,
			"componentType":5123,
			"count":2904,
			"type":"SCALAR"
		},
		{
			"bufferView":20,
			"componentType":5126,
			"count":1966,
			"max":[
				1.3671875,
				0.984375,
				0.8515625
			],
			"min":[
				-1.3671875,
				-0.984375,
				-0.8515625
			],
			"type":"VEC3"
		},
		{
			"bufferView":21,
			"componentType":5126,
			"count":1966,
			"type":"VEC3"
		},
		{
			"bufferView":22,
			"componentType":5126,
			"count":1966,
			"type":"VEC2"
		},
		{
			"bufferView":23,
			"componentType":5126,
			"count":1966,
			"max":[
				1.3671875,
				0.984375,
				0.8515625
			],
			"min":[
				-1.3671875,
				-0.984375,
				-0.8515625
			],
			"type":"VEC3"
		},
		{
			"bufferView":24,
			"componentType":5126,
			"count":1966,
			"type":"VEC3"
		},
		{
			"bufferView":25,
			"componentType":5126,
			"count":1966,
			"type":"VEC2"
		},
		{
			"bufferView":26,
			"componentType":5126,
			"count":128,
			"max":[
				1,
				1,
				1
			],
			"min":[
				-1,
				-1,
				-1
			],
			"type":"VEC3"
		},
		{
			"bufferView":27,
			"componentType":5126,
			"count":128,
			"type":"VEC3"
		},
		{
			"bufferView":28,
			"componentType":5126,
			"count":128,
			"type":"VEC2"
		},
		{
			"bufferView":29,
			"componentType":5123,
			"count":186,
			"type":"SCALAR"
		},
		{
			"bufferView":30,
			"componentType":5126,
			"count":128,
			"max":[
				1,
				1,
				1
			],
			"min":[
				-1,
				-1,
				-1
			],
			"type":"VEC3"
		},
		{
			"bufferView":31,
			"componentType":5126,
			"count":128,
			"type":"VEC3"
		},
		{
			"bufferView":32,
			"componentType":5126,
			"count":128,
			"type":"VEC2"
		},
		{
			"bufferView":33,
			"componentType":5126,
			"count":128,
			"max":[
				1,
				1,
				1
			],
			"min":[
				-1,
				-1,
				-1
			],
			"type":"VEC3"
		},
		{
			"bufferView":34,
			"componentType":5126,
			"count":128,
			"type":"VEC3"
		},
		{
			"bufferView":35,
			"componentType":5126,
			"count":128,
			"type":"VEC2"
		},
		{
			"bufferView":36,
			"componentType":5126,
			"count":128,
			"max":[
				1,
				1,
				1
			],
			"min":[
				-1,
				-1,
				-1
			],
			"type":"VEC3"
		},
		{
			"bufferView":37,
			"componentType":5126,
			"count":128,
			"type":"VEC3"
		},
		{
			"bufferView":38,
			"componentType":5126,
			"count":128,
			"type":"VEC2"
		},
		{
			"bufferView":39,
			"componentType":5126,
			"count":192,
			"max":[
				1,
				1,
				1
			],
			"min":[
				-1,
				-1,
				-1
			],
			"type":"VEC3"
		},
		{
			"bufferView":40,
			"componentType":5126,
			"count":192,
			"type":"VEC3"
		},
		{
			"bufferView":41,
			"componentType":5126,
			"count":192,
			"type":"VEC2"
		},
		{
			"bufferView":42,
			"componentType":5123,
			"count":372,
			"type":"SCALAR"
		},
		{
			"bufferView":43,
			"componentType":5126,
			"count":192,
			"max":[
				1,
				1,
				1
			],
			"min":[
				-1,
				-1,
				-1
			],
			"type":"VEC3"
		},
		{
			"bufferView":44,
			"componentType":5126,
			"count":192,
			"type":"VEC3"
		},
		{
			"bufferView":45,
			"componentType":5126,
			"count":192,
			"type":"VEC2"
		},
		{
			"bufferView":46,
			"componentType":5126,
			"count":240,
			"max":[
				0.9510578513145447,
				1,
				0.9999999403953552
			],
			"min":[
				-0.9510578513145447,
				-1,
				-0.9999999403953552
			],
			"type":"VEC3"
		},
		{
			"bufferView":47,
			"componentType":5126,
			"count":240,
			"type":"VEC3"
		},
		{
			"bufferView":48,
			"componentType":5126,
			"count":240,
			"type":"VEC2"
		},
		{
			"bufferView":49,
			"componentType":5123,
			"count":240,
			"type":"SCALAR"
		},
		{
			"bufferView":50,
			"componentType":5126,
			"count":240,
			"max":[
				0.9510578513145447,
				1,
				0.9999999403953552
			],
			"min":[
				-0.9510578513145447,
				-1,
				-0.9999999403953552
			],
			"type":"VEC3"
		},
		{
			"bufferView":51,
			"componentType":5126,
			"count":240,
			"type":"VEC3"
		},
		{
			"bufferView":52,
			"componentType":5126,
			"count":240,
			"type":"VEC2"
		},
		{
			"bufferView":53,
			"componentType":5126,
			"count":240,
			"max":[
				0.9510578513145447,
				1,
				0.9999999403953552
			],
			"min":[
				-0.9510578513145447,
				-1,
				-0.9999999403953552
			],
			"type":"VEC3"
		},
		{
			"bufferView":54,
			"componentType":5126,
			"count":240,
			"type":"VEC3"
		},
		{
			"bufferView":55,
			"componentType":5126,
			"count":240,
			"type":"VEC2"
		},
		{
			"bufferView":56,
			"componentType":5126,
			"count":48,
			"max":[
				1.132531762123108,
				0,
				0.9038675427436829
			],
			"min":[
				-1.132531762123108,
				0,
				-0.9038675427436829
			],
			"type":"VEC3"
		},
		{
			"bufferView":57,
			"componentType":5126,
			"count":48,
			"type":"VEC3"
		},
		{
			"bufferView":58,
			"componentType":5123,
			"count":162,
			"type":"SCALAR"
		},
		{
			"bufferView":59,
			"componentType":5126,
			"count":48,
			"max":[
				1.132531762123108,
				0,
				0.9038675427436829
			],
			"min":[
				-1.132531762123108,
				0,
				-0.9038675427436829
			],
			"type":"VEC3"
		},
		{
			"bufferView":60,
			"componentType":5126,
			"count":48,
			"type":"VEC3"
		},
		{
			"bufferView":61,
			"componentType":5126,
			"count":48,
			"max":[
				1.132531762123108,
				0,
				0.9038675427436829
			],
			"min":[
				-1.132531762123108,
				0,
				-0.9038675427436829
			],
			"type":"VEC3"
		},
		{
			"bufferView":62,
			"componentType":5126,
			"count":48,
			"type":"VEC3"
		},
		{
			"bufferView":63,
			"componentType":5126,
			"count":2304,
			"max":[
				1.25,
				0.25,
				1.25
			],
			"min":[
				-1.25,
				-0.25,
				-1.25
			],
			"type":"VEC3"
		},
		{
			"bufferView":64,
			"componentType":5126,
			"count":2304,
			"type":"VEC3"
		},
		{
			"bufferView":65,
			"componentType":5126,
			"count":2304,
			"type":"VEC2"
		},
		{
			"bufferView":66,
			"componentType":5123,
			"count":3456,
			"type":"SCALAR"
		},
		{
			"bufferView":67,
			"componentType":5126,
			"count":2304,
			"max":[
				1.25,
				0.25,
				1.25
			],
			"min":[
				-1.25,
				-0.25,
				-1.25
			],
			"type":"VEC3"
		},
		{
			"bufferView":68,
			"componentType":5126,
			"count":2304,
			"type":"VEC3"
		},
		{
			"bufferView":69,
			"componentType":5126,
			"count":2304,
			"type":"VEC2"
		}
	],
	"bufferViews":[
		{
			"buffer":0,
			"byteLength":288,
			"byteOffset":0,
			"target":34962
		},
		{
			"buffer":0,
			"byteLength":288,
			"byteOffset":288,
			"target":34962
		},
		{
			"buffer":0,
			"byteLength":192,
			"byteOffset":576,
			"target":34962
		},
		{
			"buffer":0,
			"byteLength":72,
			"byteOffset":768,
			"target":34963
		},
		{
			"buffer":0,
			"byteLength":288,
			"byteOffset":840,
			"target":34962
		},
		{
			"buffer":0,
			"byteLength":288,
			"byteOffset":1128,
			"target":34962
		},
		{
			"buffer":0,
			"byteLength":192,
			"byteOffset":1416,
			"target":34962
		},
		{
			"buffer":0,
			"byteLength":288,
			"byteOffset":1608,
			"target":34962
		},
		{
			"buffer":0,
			"byteLength":288,
			"byteOffset":1896,
			"target":34962
		},
		{
			"buffer":0,
			"byteLength":192,
			"byteOffset":2184,
			"target":34962
		},
		{
			"buffer":0,
			"byteLength":288,
			"byteOffset":2376,
			"target":34962
		},
		{
			"buffer":0,
			"byteLength":288,
			"byteOffset":2664,
			"target":34962
		},
		{
			"buffer":0,
			"byteLength":192,
			"byteOffset":2952,
			"target":34962
		},
		{
			"buffer":0,
			"byteLength":288,
			"byteOffset":3144,
			"target":34962
		},
		{
			"buffer":0,
			"byteLength":288,
			"byteOffset":3432,
			"target":34962
		},
		{
			"buffer":0,
			"byteLength":192,
			"byteOffset":3720,
			"target":34962
		},
		{
			"buffer":0,
			"byteLength":23592,
			"byteOffset":3912,
			"target":34962
		},
		{
			"buffer":0,
			"byteLength":23592,
			"byteOffset":27504,
			"target":34962
		},
		{
			"buffer":0,
			"byteLength":15728,
			"byteOffset":51096,
			"target":34962
		},
		{
			"buffer":0,
			"byteLength":5808,
			"byteOffset":66824,
			"target":34963
		},
		{
			"buffer":0,
			"byteLength":23592,
			"byteOffset":72632,
			"target":34962
		},
		{
			"buffer":0,
			"byteLength":23592,
			"byteOffset":96224,
			"target":34962
		},
		{
			"buffer":0,
			"byteLength":15728,
			"byteOffset":119816,
			"target":34962
		},
		{
			"buffer":0,
			"byteLength":23592,
			"byteOffset":135544,
			"target":34962
		},
		{
			"buffer":0,
			"byteLength":23592,
			"byteOffset":159136,
			"target":34962
		},
		{
			"buffer":0,
			"byteLength":15728,
			"byteOffset":182728,
			"target":34962
		},
		{
			"buffer":0,
			"byteLength":1536,
			"byteOffset":198456,
			"target":34962
		},
		{
			"buffer":0,
			"byteLength":1536,
			"byteOffset":199992,
			"target":34962
		},
		{
			"buffer":0,
			"byteLength":1024,
			"byteOffset":201528,
			"target":34962
		},
		{
			"buffer":0,
			"byteLength":372,
			"byteOffset":202552,
			"target":34963
		},
		{
			"buffer":0,
			"byteLength":1536,
			"byteOffset":202924,
			"target":34962
		},
		{
			"buffer":0,
			"byteLength":1536,
			"byteOffset":204460,
			"target":34962
		},
		{
			"buffer":0,
			"byteLength":1024,
			"byteOffset":205996,
			"target":34962
		},
		{
			"buffer":0,
			"byteLength":1536,
			"byteOffset":207020,
			"target":34962
		},
		{
			"buffer":0,
			"byteLength":1536,
			"byteOffset":208556,
			"target":34962
		},
		{
			"buffer":0,
			"byteLength":1024,
			"byteOffset":210092,
			"target":34962
		},
		{
			"buffer":0,
			"byteLength":1536,
			"byteOffset":211116,
			"target":34962
		},
		{
			"buffer":0,
			"byteLength":1536,
			"byteOffset":212652,
			"target":34962
		},
		{
			"buffer":0,
			"byteLength":1024,
			"byteOffset":214188,
			"target":34962
		},
		{
			"buffer":0,
			"byteLength":2304,
			"byteOffset":215212,
			"target":34962
		},
		{
			"buffer":0,
			"byteLength":2304,
			"byteOffset":217516,
			"target":34962
		},
		{
			"buffer":0,
			"byteLength":1536,
			"byteOffset":219820,
			"target":34962
		},
		{
			"buffer":0,
			"byteLength":744,
			"byteOffset":221356,
			"target":34963
		},
		{
			"buffer":0,
			"byteLength":2304,
			"byteOffset":222100,
			"target":34962
		},
		{
			"buffer":0,
			"byteLength":2304,
			"byteOffset":224404,
			"target":34962
		},
		{
			"buffer":0,
			"byteLength":1536,
			"byteOffset":226708,
			"target":34962
		},
		{
			"buffer":0,
			"byteLength":2880,
			"byteOffset":228244,
			"target":34962
		},
		{
			"buffer":0,
			"byteLength":2880,
			"byteOffset":231124,
			"target":34962
		},
		{
			"buffer":0,
			"byteLength":1920,
			"byteOffset":234004,
			"target":34962
		},
		{
			"buffer":0,
			"byteLength":480,
			"byteOffset":235924,
			"target":34963
		},
		{
			"buffer":0,
			"byteLength":2880,
			"byteOffset":236404,
			"target":34962
		},
		{
			"buffer":0,
			"byteLength":2880,
			"byteOffset":239284,
			"target":34962
		},
		{
			"buffer":0,
			"byteLength":1920,
			"byteOffset":242164,
			"target":34962
		},
		{
			"buffer":0,
			"byteLength":2880,
			"byteOffset":244084,
			"target":34962
		},
		{
			"buffer":0,
			"byteLength":2880,
			"byteOffset":246964,
			"target":34962
		},
		{
			"buffer":0,
			"byteLength":1920,
			"byteOffset":249844,
			"target":34962
		},
		{
			"buffer":0,
			"byteLength":576,
			"byteOffset":251764,
			"target":34962
		},
		{
			"buffer":0,
			"byteLength":576,
			"byteOffset":252340,
			"target":34962
		},
		{
			"buffer":0,
			"byteLength":324,
			"byteOffset":252916,
			"target":34963
		},
		{
			"buffer":0,
			"byteLength":576,
			"byteOffset":253240,
			"target":34962
		},
		{
			"buffer":0,
			"byteLength":576,
			"byteOffset":253816,
			"target":34962
		},
		{
			"buffer":0,
			"byteLength":576,
			"byteOffset":254392,
			"target":34962
		},
		{
			"buffer":0,
			"byteLength":576,
			"byteOffset":254968,
			"target":34962
		},
		{
			"buffer":0,
			"byteLength":27648,
			"byteOffset":255544,
			"target":34962
		},
		{
			"buffer":0,
			"byteLength":27648,
			"byteOffset":283192,
			"target":34962
		},
		{
			"buffer":0,
			"byteLength":18432,
			"byteOffset":310840,
			"target":34962
		},
		{
			"buffer":0,
			"byteLength":6912,
			"byteOffset":329272,
			"target":34963
		},
		{
			"buffer":0,
			"byteLength":27648,
			"byteOffset":336184,
			"target":34962
		},
		{
			"buffer":0,
			"byteLength":27648,
			"byteOffset":363832,
			"target":34962
		},
		{
			"buffer":0,
			"byteLength":18432,
			"byteOffset":391480,
			"target":34962
		}
	],
	"buffers":[
		{
			"byteLength":409912,
			"uri":"mesh_test.bin"
		}
	]
}
