{
	"asset":{
		"generator":"Khronos glTF Blender I/O v4.4.55",
		"version":"2.0"
	},
	"scene":0,
	"scenes":[
		{
			"extras":{
				"b2gd_data__":{
					"geometry":{
						"collision_data":{
							"body_type_static":{},
							"shape_type_trimesh":{}
						},
						"navigation_data":{}
					}
				}
			},
			"name":"Scene",
			"nodes":[
				0,
				1,
				2
			]
		}
	],
	"nodes":[
		{
			"extras":{
				"b2gd_data__":{
					"mode":1,
					"geometry":false,
					"geometry/gen/collision":true,
					"geometry/gen/navigation":true
				}
			},
			"mesh":0,
			"name":"Plane"
		},
		{
			"extras":{
				"b2gd_data__":{
					"mode":1,
					"geometry/gen/navigation":true
				}
			},
			"mesh":1,
			"name":"Cube",
			"scale":[
				5.599999904632568,
				1,
				5.599999904632568
			],
			"translation":[
				10,
				0,
				0
			]
		},
		{
			"extras":{
				"b2gd_data__":{
					"mode":1,
					"geometry/gen/navigation":true,
					"geometry/gen/occluder":true
				}
			},
			"mesh":2,
			"name":"Suzanne",
			"translation":[
				-10,
				1,
				0
			]
		}
	],
	"meshes":[
		{
			"name":"Plane",
			"primitives":[
				{
					"attributes":{
						"POSITION":0,
						"NORMAL":1,
						"TEXCOORD_0":2
					},
					"indices":3
				}
			]
		},
		{
			"name":"Cube.001",
			"primitives":[
				{
					"attributes":{
						"POSITION":4,
						"NORMAL":5,
						"TEXCOORD_0":6
					},
					"indices":7
				}
			]
		},
		{
			"name":"Suzanne",
			"primitives":[
				{
					"attributes":{
						"POSITION":8,
						"NORMAL":9,
						"TEXCOORD_0":10
					},
					"indices":11
				}
			]
		}
	],
	"accessors":[
		{
			"bufferView":0,
			"componentType":5126,
			"count":14,
			"max":[
				11,
				0,
				1
			],
			"min":[
				-10,
				0,
				-21
			],
			"type":"VEC3"
		},
		{
			"bufferView":1,
			"componentType":5126,
			"count":14,
			"type":"VEC3"
		},
		{
			"bufferView":2,
			"componentType":5126,
			"count":14,
			"type":"VEC2"
		},
		{
			"bufferView":3,
			"componentType":5123,
			"count":36,
			"type":"SCALAR"
		},
		{
			"bufferView":4,
			"componentType":5126,
			"count":24,
			"max":[
				1,
				1,
				1
			],
			"min":[
				-1,
				-1,
				-1
			],
			"type":"VEC3"
		},
		{
			"bufferView":5,
			"componentType":5126,
			"count":24,
			"type":"VEC3"
		},
		{
			"bufferView":6,
			"componentType":5126,
			"count":24,
			"type":"VEC2"
		},
		{
			"bufferView":7,
			"componentType":5123,
			"count":36,
			"type":"SCALAR"
		},
		{
			"bufferView":8,
			"componentType":5126,
			"count":1966,
			"max":[
				1.3671875,
				0.984375,
				0.8515625
			],
			"min":[
				-1.3671875,
				-0.984375,
				-0.8515625
			],
			"type":"VEC3"
		},
		{
			"bufferView":9,
			"componentType":5126,
			"count":1966,
			"type":"VEC3"
		},
		{
			"bufferView":10,
			"componentType":5126,
			"count":1966,
			"type":"VEC2"
		},
		{
			"bufferView":11,
			"componentType":5123,
			"count":2904,
			"type":"SCALAR"
		}
	],
	"bufferViews":[
		{
			"buffer":0,
			"byteLength":168,
			"byteOffset":0,
			"target":34962
		},
		{
			"buffer":0,
			"byteLength":168,
			"byteOffset":168,
			"target":34962
		},
		{
			"buffer":0,
			"byteLength":112,
			"byteOffset":336,
			"target":34962
		},
		{
			"buffer":0,
			"byteLength":72,
			"byteOffset":448,
			"target":34963
		},
		{
			"buffer":0,
			"byteLength":288,
			"byteOffset":520,
			"target":34962
		},
		{
			"buffer":0,
			"byteLength":288,
			"byteOffset":808,
			"target":34962
		},
		{
			"buffer":0,
			"byteLength":192,
			"byteOffset":1096,
			"target":34962
		},
		{
			"buffer":0,
			"byteLength":72,
			"byteOffset":1288,
			"target":34963
		},
		{
			"buffer":0,
			"byteLength":23592,
			"byteOffset":1360,
			"target":34962
		},
		{
			"buffer":0,
			"byteLength":23592,
			"byteOffset":24952,
			"target":34962
		},
		{
			"buffer":0,
			"byteLength":15728,
			"byteOffset":48544,
			"target":34962
		},
		{
			"buffer":0,
			"byteLength":5808,
			"byteOffset":64272,
			"target":34963
		}
	],
	"buffers":[
		{
			"byteLength":70080,
			"uri":"navigation_test.bin"
		}
	]
}
