<?xml version="1.0" encoding="UTF-8" standalone="no"?>
<!-- Created with Inkscape (http://www.inkscape.org/) -->

<svg
   width="183"
   height="183"
   viewBox="0 0 183 183"
   version="1.1"
   id="svg1"
   xml:space="preserve"
   xmlns="http://www.w3.org/2000/svg"
   xmlns:svg="http://www.w3.org/2000/svg"><defs
     id="defs1" /><g
     id="layer1"
     transform="translate(-1835.458,-825.17554)"><path
       id="path56"
       style="fill:#478cbf;fill-opacity:1;stroke:#ffffff;stroke-width:6.00199;stroke-linecap:round;stroke-linejoin:miter;stroke-dasharray:none"
       d="m 1958.2518,841.14424 c -24.4431,2e-4 -44.2581,19.819 -44.2582,44.2667 0.043,11.724 4.7337,22.952 12.9838,31.28075 8.2501,8.32875 12.9404,19.55755 12.982,31.28195 -10e-5,24.4477 -19.8151,44.26646 -44.2583,44.26666 -10.4737,-0.012 -20.604,-3.6229 -28.5893,-10.40176 34.8722,32.11916 88.8536,30.94196 122.437,-2.523 34.5693,-34.5748 34.5693,-90.6325 0,-125.2074 -8.3006,-8.3014 -19.5586,-12.9647 -31.297,-12.9639 z" /><path
       id="path58"
       style="fill:#e87d0d;fill-opacity:1;stroke:#ffffff;stroke-width:6.00199;stroke-linecap:round;stroke-linejoin:miter;stroke-dasharray:none"
       d="m 1926.9569,828.17654 c -23.4759,6e-4 -45.9899,9.3284 -62.5897,25.9316 -34.5693,34.5749 -34.5693,90.6326 0,125.2074 8.3001,8.3009 19.5573,12.96406 31.2948,12.96376 24.4432,-2e-4 44.2582,-19.81896 44.2583,-44.26666 -0.042,-11.7236 -4.7324,-22.9516 -12.9825,-31.28035 -8.2501,-8.32875 -12.941,-19.55765 -12.9832,-31.28225 -10e-4,-24.4485 19.8143,-44.2685 44.2582,-44.2687 10.147,0 19.9853,3.4123 27.8665,9.8048 -16.2061,-14.6688 -37.2653,-22.7422 -59.1224,-22.8096 z" /><ellipse
       style="fill:#ffffff;fill-opacity:1;stroke-width:1.50042;stroke-linecap:round;stroke-linejoin:round"
       id="circle61"
       cx="1958.2518"
       cy="885.41095"
       rx="22.129133"
       ry="22.133341" /><ellipse
       style="fill:#414042;fill-opacity:1;stroke-width:0.750211;stroke-linecap:round;stroke-linejoin:round"
       id="circle62"
       cx="1958.2518"
       cy="885.41095"
       rx="11.064567"
       ry="11.06667" /><path
       id="path63"
       style="fill:#ffffff;fill-opacity:1;stroke-width:1.50042;stroke-linecap:round;stroke-linejoin:round"
       d="m 1917.7912,948.01264 a 22.129134,22.13334 0 0 1 -22.1292,22.1333 22.129134,22.13334 0 0 1 -22.1291,-22.1333 22.129134,22.13334 0 0 1 22.1291,-22.1333 22.129134,22.13334 0 0 1 22.1292,22.1333 z" /><path
       id="path64"
       style="fill:#265787;fill-opacity:1;stroke-width:0.750211;stroke-linecap:round;stroke-linejoin:round"
       d="m 1906.7266,948.01264 a 11.064566,11.066671 0 0 1 -11.0646,11.0667 11.064566,11.066671 0 0 1 -11.0645,-11.0667 11.064566,11.066671 0 0 1 11.0645,-11.0667 11.064566,11.066671 0 0 1 11.0646,11.0667 z" /></g></svg>
