{
	"asset":{
		"generator":"Khronos glTF Blender I/O v4.3.47",
		"version":"2.0"
	},
	"scene":0,
	"scenes":[
		{
			"extras":{
				"b2gd_data__":{
					"replace_by_scene":{},
					"props":{
						"geometry":{}
					}
				}
			},
			"name":"Scene",
			"nodes":[
				4,
				9,
				10,
				14,
				19,
				24
			]
		}
	],
	"nodes":[
		{
			"mesh":0,
			"name":"cube_not_replace",
			"rotation":[
				0.1313932090997696,
				0.1345723569393158,
				-0.10083382576704025,
				0.976963996887207
			],
			"scale":[
				0.6098659038543701,
				0.6098659038543701,
				0.6098659038543701
			],
			"translation":[
				1.5,
				0,
				0
			]
		},
		{
			"extras":{
				"b2gd_data__":{
					"mode":0,
					"replace_by_scene/path":"res://test/replace_by_scene/scene_to_replace_1.tscn"
				}
			},
			"mesh":1,
			"name":"cube_replace_scn1",
			"translation":[
				4.5,
				0,
				0
			]
		},
		{
			"extras":{
				"b2gd_data__":{
					"mode":0,
					"replace_by_scene/path":"uid://c8qimbwv6k0c5"
				},
				"powerful_prop":"this contains too much power"
			},
			"mesh":2,
			"name":"cube_replace_scn2_props",
			"rotation":[
				-0.2591444253921509,
				-0.2062644362449646,
				0.210203617811203,
				0.9198443293571472
			],
			"scale":[
				0.45003870129585266,
				0.636766791343689,
				1.3882919549942017
			],
			"translation":[
				-1.5,
				0,
				0
			]
		},
		{
			"extras":{
				"b2gd_data__":{
					"mode":0,
					"replace_by_scene/path":"res://test/replace_by_scene/scene_to_replace_3.tscn"
				}
			},
			"mesh":3,
			"name":"cube_replace_scn3",
			"rotation":[
				-0.41956597566604614,
				0.17802953720092773,
				-0.17489096522331238,
				0.8727445602416992
			],
			"scale":[
				0.7787600159645081,
				1.834426999092102,
				0.7787600755691528
			],
			"translation":[
				-4.5,
				0,
				0
			]
		},
		{
			"children":[
				0,
				1,
				2,
				3
			],
			"name":"Cubes",
			"translation":[
				-10.5,
				0,
				0
			]
		},
		{
			"extras":{
				"b2gd_data__":{
					"mode":0,
					"replace_by_scene/path":"uid://biyc2r0t7klmw"
				}
			},
			"mesh":4,
			"name":"moke_replace_scn3",
			"rotation":[
				-0.5843768119812012,
				-0.2647036910057068,
				0.2995220720767975,
				0.7062027454376221
			],
			"scale":[
				0.6485832929611206,
				0.6485832929611206,
				0.6485832929611206
			],
			"translation":[
				-4.5,
				0,
				0
			]
		},
		{
			"mesh":5,
			"name":"monke_not_replace",
			"translation":[
				-1.5,
				0,
				0
			]
		},
		{
			"extras":{
				"b2gd_data__":{
					"mode":0,
					"replace_by_scene/path":"res://test/replace_by_scene/scene_to_replace_1.tscn"
				},
				"a_prop_priate":46469.0,
				"second prop":77
			},
			"mesh":6,
			"name":"monke_replace_props_scn1",
			"rotation":[
				-0.4391867220401764,
				0.11165762692689896,
				-0.09891833364963531,
				0.8859249353408813
			],
			"translation":[
				1.5,
				0,
				0
			]
		},
		{
			"extras":{
				"b2gd_data__":{
					"mode":0,
					"replace_by_scene/position":true,
					"replace_by_scene/rotation":true,
					"replace_by_scene/scale":true,
					"replace_by_scene/path":"res://test/replace_by_scene/scene_to_replace_3.tscn"
				}
			},
			"mesh":7,
			"name":"monke_replace_scn3_discard_transform",
			"rotation":[
				-0.5267091989517212,
				0.44177231192588806,
				-0.34908121824264526,
				0.636833667755127
			],
			"scale":[
				2.880385398864746,
				1.4095404148101807,
				1.647459864616394
			],
			"translation":[
				4.5,
				0,
				0
			]
		},
		{
			"children":[
				5,
				6,
				7,
				8
			],
			"name":"Monkes",
			"translation":[
				7.5,
				0,
				-4
			]
		},
		{
			"extras":{
				"b2gd_data__":{
					"mode":0,
					"replace_by_scene/path":"uid://dbl34wbrj8577",
					"replace_by_scene/position":true,
					"replace_by_scene/rotation":true,
					"replace_by_scene/scale":true
				}
			},
			"mesh":8,
			"name":"rogue_arrow_discard_transform",
			"rotation":[
				-0.4626134932041168,
				-0.28591856360435486,
				0.7502856850624084,
				0.37591320276260376
			],
			"scale":[
				-1.6572295427322388,
				-0.9130536317825317,
				-4.270881652832031
			],
			"translation":[
				-2.829754590988159,
				6.38138484954834,
				-5.999999046325684
			]
		},
		{
			"extras":{
				"toda":1.0
			},
			"name":"empty_replace_scn1_props",
			"translation":[
				-3,
				0,
				0
			]
		},
		{
			"extras":{
				"hora":true
			},
			"name":"empty_replace_scn2_props"
		},
		{
			"extras":{
				"isso":"D="
			},
			"name":"empty_replace_scn3_props",
			"translation":[
				3,
				0,
				0
			]
		},
		{
			"children":[
				11,
				12,
				13
			],
			"name":"Empties",
			"translation":[
				-10,
				0,
				-4
			]
		},
		{
			"extras":{
				"b2gd_data__":{
					"mode":0,
					"replace_by_scene/path":"uid://dbl34wbrj8577",
					"replace_by_scene/position":true
				}
			},
			"mesh":9,
			"name":"arrow_discard_position",
			"rotation":[
				0.6046521663665771,
				-0.617076575756073,
				0,
				0.5035992860794067
			],
			"scale":[
				2.4082629680633545,
				2.4082627296447754,
				2.4082627296447754
			],
			"translation":[
				-3.75,
				0,
				0
			]
		},
		{
			"extras":{
				"b2gd_data__":{
					"mode":0,
					"replace_by_scene/path":"uid://dbl34wbrj8577",
					"replace_by_scene/rotation":true
				}
			},
			"mesh":10,
			"name":"arrow_discard_rotation",
			"rotation":[
				-0.44142574071884155,
				-0.18337386846542358,
				-0.8738093972206116,
				0.08930127322673798
			],
			"scale":[
				0.664855420589447,
				0.664855420589447,
				0.6648553609848022
			],
			"translation":[
				-1.75,
				0,
				0
			]
		},
		{
			"extras":{
				"b2gd_data__":{
					"mode":0,
					"replace_by_scene/path":"uid://dbl34wbrj8577",
					"replace_by_scene/scale":true
				}
			},
			"mesh":11,
			"name":"arrow_discard_scale",
			"rotation":[
				-0.045459117740392685,
				0.6498632431030273,
				-0.642497181892395,
				0.40349552035331726
			],
			"scale":[
				4.229494094848633,
				0.829830527305603,
				4.229495525360107
			],
			"translation":[
				1.25,
				0,
				0
			]
		},
		{
			"mesh":12,
			"name":"arrow_no_replace",
			"rotation":[
				0.20709308981895447,
				0.10775797069072723,
				-0.18034011125564575,
				0.9554988741874695
			],
			"scale":[
				2.3692171573638916,
				1.0285258293151855,
				1.57892906665802
			],
			"translation":[
				4.25,
				0,
				0
			]
		},
		{
			"children":[
				15,
				16,
				17,
				18
			],
			"name":"Arrows",
			"translation":[
				7.75,
				0,
				3
			]
		},
		{
			"extras":{
				"b2gd_data__":{
					"mode":0,
					"replace_by_scene/position":false,
					"replace_by_scene/path":"uid://dbl34wbrj8577"
				}
			},
			"mesh":13,
			"name":"chain sphere replace",
			"rotation":[
				0.6275516748428345,
				-0.6618422865867615,
				0.11278381198644638,
				0.39423811435699463
			],
			"scale":[
				0.5370268821716309,
				0.5370268821716309,
				0.5370269417762756
			],
			"translation":[
				-4.055628776550293,
				-3.083225965499878,
				0
			]
		},
		{
			"children":[
				20
			],
			"extras":{
				"oi lindo":"xDDDDDDDDD"
			},
			"mesh":14,
			"name":"chain sphere no replace props",
			"translation":[
				3.1780948638916016,
				-1.7550671100616455,
				0
			]
		},
		{
			"children":[
				21
			],
			"extras":{
				"rolling around":"at the speed of sound",
				"b2gd_data__":{
					"mode":0,
					"replace_by_scene/path":"res://test/replace_by_scene/scene_to_replace_2.tscn"
				}
			},
			"name":"chain empty replace props",
			"translation":[
				3.7473068237304688,
				0.9249677062034607,
				0
			]
		},
		{
			"children":[
				22
			],
			"extras":{
				"senhor":"dai-me for\u00e7as \ud83d\ude4f",
				"b2gd_data__":{
					"mode":0,
					"replace_by_scene/path":"res://test/replace_by_scene/scene_to_replace_2.tscn"
				}
			},
			"mesh":15,
			"name":"chain cone replace with props",
			"rotation":[
				-0.3078789710998535,
				0.2013947069644928,
				-0.018719175830483437,
				0.9296775460243225
			],
			"translation":[
				2.4980597496032715,
				-2.237171173095703,
				0
			]
		},
		{
			"children":[
				23
			],
			"mesh":16,
			"name":"Parenting Chain",
			"translation":[
				-10,
				0,
				8
			]
		}
	],
	"materials":[
		{
			"doubleSided":true,
			"name":"Material",
			"pbrMetallicRoughness":{
				"baseColorFactor":[
					0.800000011920929,
					0.800000011920929,
					0.800000011920929,
					1
				],
				"metallicFactor":0,
				"roughnessFactor":0.5
			}
		}
	],
	"meshes":[
		{
			"name":"Cube.003",
			"primitives":[
				{
					"attributes":{
						"POSITION":0,
						"NORMAL":1,
						"TEXCOORD_0":2
					},
					"indices":3,
					"material":0
				}
			]
		},
		{
			"name":"Cube",
			"primitives":[
				{
					"attributes":{
						"POSITION":4,
						"NORMAL":5,
						"TEXCOORD_0":6
					},
					"indices":3,
					"material":0
				}
			]
		},
		{
			"name":"Cube.002",
			"primitives":[
				{
					"attributes":{
						"POSITION":7,
						"NORMAL":8,
						"TEXCOORD_0":9
					},
					"indices":3,
					"material":0
				}
			]
		},
		{
			"name":"Cube.001",
			"primitives":[
				{
					"attributes":{
						"POSITION":10,
						"NORMAL":11,
						"TEXCOORD_0":12
					},
					"indices":3,
					"material":0
				}
			]
		},
		{
			"name":"Suzanne",
			"primitives":[
				{
					"attributes":{
						"POSITION":13,
						"NORMAL":14,
						"TEXCOORD_0":15
					},
					"indices":16
				}
			]
		},
		{
			"name":"Suzanne.001",
			"primitives":[
				{
					"attributes":{
						"POSITION":17,
						"NORMAL":18,
						"TEXCOORD_0":19
					},
					"indices":16
				}
			]
		},
		{
			"name":"Suzanne.002",
			"primitives":[
				{
					"attributes":{
						"POSITION":20,
						"NORMAL":21,
						"TEXCOORD_0":22
					},
					"indices":16
				}
			]
		},
		{
			"name":"Suzanne.003",
			"primitives":[
				{
					"attributes":{
						"POSITION":23,
						"NORMAL":24,
						"TEXCOORD_0":25
					},
					"indices":16
				}
			]
		},
		{
			"name":"Cone",
			"primitives":[
				{
					"attributes":{
						"POSITION":26,
						"NORMAL":27,
						"TEXCOORD_0":28
					},
					"indices":29
				}
			]
		},
		{
			"name":"Cone.001",
			"primitives":[
				{
					"attributes":{
						"POSITION":30,
						"NORMAL":31,
						"TEXCOORD_0":32
					},
					"indices":29
				}
			]
		},
		{
			"name":"Cone.002",
			"primitives":[
				{
					"attributes":{
						"POSITION":33,
						"NORMAL":34,
						"TEXCOORD_0":35
					},
					"indices":29
				}
			]
		},
		{
			"name":"Cone.003",
			"primitives":[
				{
					"attributes":{
						"POSITION":36,
						"NORMAL":37,
						"TEXCOORD_0":38
					},
					"indices":29
				}
			]
		},
		{
			"name":"Cone.004",
			"primitives":[
				{
					"attributes":{
						"POSITION":39,
						"NORMAL":40,
						"TEXCOORD_0":41
					},
					"indices":29
				}
			]
		},
		{
			"name":"Sphere.001",
			"primitives":[
				{
					"attributes":{
						"POSITION":42,
						"NORMAL":43,
						"TEXCOORD_0":44
					},
					"indices":45
				}
			]
		},
		{
			"name":"Sphere",
			"primitives":[
				{
					"attributes":{
						"POSITION":46,
						"NORMAL":47,
						"TEXCOORD_0":48
					},
					"indices":45
				}
			]
		},
		{
			"name":"Cone.005",
			"primitives":[
				{
					"attributes":{
						"POSITION":49,
						"NORMAL":50,
						"TEXCOORD_0":51
					},
					"indices":52
				}
			]
		},
		{
			"name":"Suzanne.004",
			"primitives":[
				{
					"attributes":{
						"POSITION":53,
						"NORMAL":54,
						"TEXCOORD_0":55
					},
					"indices":16
				}
			]
		}
	],
	"accessors":[
		{
			"bufferView":0,
			"componentType":5126,
			"count":24,
			"max":[
				1,
				1,
				1
			],
			"min":[
				-1,
				-1,
				-1
			],
			"type":"VEC3"
		},
		{
			"bufferView":1,
			"componentType":5126,
			"count":24,
			"type":"VEC3"
		},
		{
			"bufferView":2,
			"componentType":5126,
			"count":24,
			"type":"VEC2"
		},
		{
			"bufferView":3,
			"componentType":5123,
			"count":36,
			"type":"SCALAR"
		},
		{
			"bufferView":4,
			"componentType":5126,
			"count":24,
			"max":[
				1,
				1,
				1
			],
			"min":[
				-1,
				-1,
				-1
			],
			"type":"VEC3"
		},
		{
			"bufferView":5,
			"componentType":5126,
			"count":24,
			"type":"VEC3"
		},
		{
			"bufferView":6,
			"componentType":5126,
			"count":24,
			"type":"VEC2"
		},
		{
			"bufferView":7,
			"componentType":5126,
			"count":24,
			"max":[
				1,
				1,
				1
			],
			"min":[
				-1,
				-1,
				-1
			],
			"type":"VEC3"
		},
		{
			"bufferView":8,
			"componentType":5126,
			"count":24,
			"type":"VEC3"
		},
		{
			"bufferView":9,
			"componentType":5126,
			"count":24,
			"type":"VEC2"
		},
		{
			"bufferView":10,
			"componentType":5126,
			"count":24,
			"max":[
				1,
				1,
				1
			],
			"min":[
				-1,
				-1,
				-1
			],
			"type":"VEC3"
		},
		{
			"bufferView":11,
			"componentType":5126,
			"count":24,
			"type":"VEC3"
		},
		{
			"bufferView":12,
			"componentType":5126,
			"count":24,
			"type":"VEC2"
		},
		{
			"bufferView":13,
			"componentType":5126,
			"count":1966,
			"max":[
				1.3671875,
				0.984375,
				0.8515625
			],
			"min":[
				-1.3671875,
				-0.984375,
				-0.8515625
			],
			"type":"VEC3"
		},
		{
			"bufferView":14,
			"componentType":5126,
			"count":1966,
			"type":"VEC3"
		},
		{
			"bufferView":15,
			"componentType":5126,
			"count":1966,
			"type":"VEC2"
		},
		{
			"bufferView":16,
			"componentType":5123,
			"count":2904,
			"type":"SCALAR"
		},
		{
			"bufferView":17,
			"componentType":5126,
			"count":1966,
			"max":[
				1.3671875,
				0.984375,
				0.8515625
			],
			"min":[
				-1.3671875,
				-0.984375,
				-0.8515625
			],
			"type":"VEC3"
		},
		{
			"bufferView":18,
			"componentType":5126,
			"count":1966,
			"type":"VEC3"
		},
		{
			"bufferView":19,
			"componentType":5126,
			"count":1966,
			"type":"VEC2"
		},
		{
			"bufferView":20,
			"componentType":5126,
			"count":1966,
			"max":[
				1.3671875,
				0.984375,
				0.8515625
			],
			"min":[
				-1.3671875,
				-0.984375,
				-0.8515625
			],
			"type":"VEC3"
		},
		{
			"bufferView":21,
			"componentType":5126,
			"count":1966,
			"type":"VEC3"
		},
		{
			"bufferView":22,
			"componentType":5126,
			"count":1966,
			"type":"VEC2"
		},
		{
			"bufferView":23,
			"componentType":5126,
			"count":1966,
			"max":[
				1.3671875,
				0.984375,
				0.8515625
			],
			"min":[
				-1.3671875,
				-0.984375,
				-0.8515625
			],
			"type":"VEC3"
		},
		{
			"bufferView":24,
			"componentType":5126,
			"count":1966,
			"type":"VEC3"
		},
		{
			"bufferView":25,
			"componentType":5126,
			"count":1966,
			"type":"VEC2"
		},
		{
			"bufferView":26,
			"componentType":5126,
			"count":320,
			"max":[
				0.33531826734542847,
				2.3472278118133545,
				0.33531826734542847
			],
			"min":[
				-0.33531826734542847,
				3.197844193891797e-07,
				-0.33531826734542847
			],
			"type":"VEC3"
		},
		{
			"bufferView":27,
			"componentType":5126,
			"count":320,
			"type":"VEC3"
		},
		{
			"bufferView":28,
			"componentType":5126,
			"count":320,
			"type":"VEC2"
		},
		{
			"bufferView":29,
			"componentType":5123,
			"count":558,
			"type":"SCALAR"
		},
		{
			"bufferView":30,
			"componentType":5126,
			"count":320,
			"max":[
				0.33531826734542847,
				2.3472278118133545,
				0.33531826734542847
			],
			"min":[
				-0.33531826734542847,
				3.197844193891797e-07,
				-0.33531826734542847
			],
			"type":"VEC3"
		},
		{
			"bufferView":31,
			"componentType":5126,
			"count":320,
			"type":"VEC3"
		},
		{
			"bufferView":32,
			"componentType":5126,
			"count":320,
			"type":"VEC2"
		},
		{
			"bufferView":33,
			"componentType":5126,
			"count":320,
			"max":[
				0.33531826734542847,
				2.3472278118133545,
				0.33531826734542847
			],
			"min":[
				-0.33531826734542847,
				3.197844193891797e-07,
				-0.33531826734542847
			],
			"type":"VEC3"
		},
		{
			"bufferView":34,
			"componentType":5126,
			"count":320,
			"type":"VEC3"
		},
		{
			"bufferView":35,
			"componentType":5126,
			"count":320,
			"type":"VEC2"
		},
		{
			"bufferView":36,
			"componentType":5126,
			"count":320,
			"max":[
				0.33531826734542847,
				2.3472278118133545,
				0.33531826734542847
			],
			"min":[
				-0.33531826734542847,
				3.197844193891797e-07,
				-0.33531826734542847
			],
			"type":"VEC3"
		},
		{
			"bufferView":37,
			"componentType":5126,
			"count":320,
			"type":"VEC3"
		},
		{
			"bufferView":38,
			"componentType":5126,
			"count":320,
			"type":"VEC2"
		},
		{
			"bufferView":39,
			"componentType":5126,
			"count":320,
			"max":[
				0.33531826734542847,
				2.3472278118133545,
				0.33531826734542847
			],
			"min":[
				-0.33531826734542847,
				3.197844193891797e-07,
				-0.33531826734542847
			],
			"type":"VEC3"
		},
		{
			"bufferView":40,
			"componentType":5126,
			"count":320,
			"type":"VEC3"
		},
		{
			"bufferView":41,
			"componentType":5126,
			"count":320,
			"type":"VEC2"
		},
		{
			"bufferView":42,
			"componentType":5126,
			"count":1984,
			"max":[
				0.9999997019767761,
				1,
				0.9999993443489075
			],
			"min":[
				-0.9999990463256836,
				-1,
				-1
			],
			"type":"VEC3"
		},
		{
			"bufferView":43,
			"componentType":5126,
			"count":1984,
			"type":"VEC3"
		},
		{
			"bufferView":44,
			"componentType":5126,
			"count":1984,
			"type":"VEC2"
		},
		{
			"bufferView":45,
			"componentType":5123,
			"count":2880,
			"type":"SCALAR"
		},
		{
			"bufferView":46,
			"componentType":5126,
			"count":1984,
			"max":[
				0.9999997019767761,
				1,
				0.9999993443489075
			],
			"min":[
				-0.9999990463256836,
				-1,
				-1
			],
			"type":"VEC3"
		},
		{
			"bufferView":47,
			"componentType":5126,
			"count":1984,
			"type":"VEC3"
		},
		{
			"bufferView":48,
			"componentType":5126,
			"count":1984,
			"type":"VEC2"
		},
		{
			"bufferView":49,
			"componentType":5126,
			"count":128,
			"max":[
				1,
				1,
				1
			],
			"min":[
				-1,
				-1,
				-1
			],
			"type":"VEC3"
		},
		{
			"bufferView":50,
			"componentType":5126,
			"count":128,
			"type":"VEC3"
		},
		{
			"bufferView":51,
			"componentType":5126,
			"count":128,
			"type":"VEC2"
		},
		{
			"bufferView":52,
			"componentType":5123,
			"count":186,
			"type":"SCALAR"
		},
		{
			"bufferView":53,
			"componentType":5126,
			"count":1966,
			"max":[
				1.3671875,
				0.984375,
				0.8515625
			],
			"min":[
				-1.3671875,
				-0.984375,
				-0.8515625
			],
			"type":"VEC3"
		},
		{
			"bufferView":54,
			"componentType":5126,
			"count":1966,
			"type":"VEC3"
		},
		{
			"bufferView":55,
			"componentType":5126,
			"count":1966,
			"type":"VEC2"
		}
	],
	"bufferViews":[
		{
			"buffer":0,
			"byteLength":288,
			"byteOffset":0,
			"target":34962
		},
		{
			"buffer":0,
			"byteLength":288,
			"byteOffset":288,
			"target":34962
		},
		{
			"buffer":0,
			"byteLength":192,
			"byteOffset":576,
			"target":34962
		},
		{
			"buffer":0,
			"byteLength":72,
			"byteOffset":768,
			"target":34963
		},
		{
			"buffer":0,
			"byteLength":288,
			"byteOffset":840,
			"target":34962
		},
		{
			"buffer":0,
			"byteLength":288,
			"byteOffset":1128,
			"target":34962
		},
		{
			"buffer":0,
			"byteLength":192,
			"byteOffset":1416,
			"target":34962
		},
		{
			"buffer":0,
			"byteLength":288,
			"byteOffset":1608,
			"target":34962
		},
		{
			"buffer":0,
			"byteLength":288,
			"byteOffset":1896,
			"target":34962
		},
		{
			"buffer":0,
			"byteLength":192,
			"byteOffset":2184,
			"target":34962
		},
		{
			"buffer":0,
			"byteLength":288,
			"byteOffset":2376,
			"target":34962
		},
		{
			"buffer":0,
			"byteLength":288,
			"byteOffset":2664,
			"target":34962
		},
		{
			"buffer":0,
			"byteLength":192,
			"byteOffset":2952,
			"target":34962
		},
		{
			"buffer":0,
			"byteLength":23592,
			"byteOffset":3144,
			"target":34962
		},
		{
			"buffer":0,
			"byteLength":23592,
			"byteOffset":26736,
			"target":34962
		},
		{
			"buffer":0,
			"byteLength":15728,
			"byteOffset":50328,
			"target":34962
		},
		{
			"buffer":0,
			"byteLength":5808,
			"byteOffset":66056,
			"target":34963
		},
		{
			"buffer":0,
			"byteLength":23592,
			"byteOffset":71864,
			"target":34962
		},
		{
			"buffer":0,
			"byteLength":23592,
			"byteOffset":95456,
			"target":34962
		},
		{
			"buffer":0,
			"byteLength":15728,
			"byteOffset":119048,
			"target":34962
		},
		{
			"buffer":0,
			"byteLength":23592,
			"byteOffset":134776,
			"target":34962
		},
		{
			"buffer":0,
			"byteLength":23592,
			"byteOffset":158368,
			"target":34962
		},
		{
			"buffer":0,
			"byteLength":15728,
			"byteOffset":181960,
			"target":34962
		},
		{
			"buffer":0,
			"byteLength":23592,
			"byteOffset":197688,
			"target":34962
		},
		{
			"buffer":0,
			"byteLength":23592,
			"byteOffset":221280,
			"target":34962
		},
		{
			"buffer":0,
			"byteLength":15728,
			"byteOffset":244872,
			"target":34962
		},
		{
			"buffer":0,
			"byteLength":3840,
			"byteOffset":260600,
			"target":34962
		},
		{
			"buffer":0,
			"byteLength":3840,
			"byteOffset":264440,
			"target":34962
		},
		{
			"buffer":0,
			"byteLength":2560,
			"byteOffset":268280,
			"target":34962
		},
		{
			"buffer":0,
			"byteLength":1116,
			"byteOffset":270840,
			"target":34963
		},
		{
			"buffer":0,
			"byteLength":3840,
			"byteOffset":271956,
			"target":34962
		},
		{
			"buffer":0,
			"byteLength":3840,
			"byteOffset":275796,
			"target":34962
		},
		{
			"buffer":0,
			"byteLength":2560,
			"byteOffset":279636,
			"target":34962
		},
		{
			"buffer":0,
			"byteLength":3840,
			"byteOffset":282196,
			"target":34962
		},
		{
			"buffer":0,
			"byteLength":3840,
			"byteOffset":286036,
			"target":34962
		},
		{
			"buffer":0,
			"byteLength":2560,
			"byteOffset":289876,
			"target":34962
		},
		{
			"buffer":0,
			"byteLength":3840,
			"byteOffset":292436,
			"target":34962
		},
		{
			"buffer":0,
			"byteLength":3840,
			"byteOffset":296276,
			"target":34962
		},
		{
			"buffer":0,
			"byteLength":2560,
			"byteOffset":300116,
			"target":34962
		},
		{
			"buffer":0,
			"byteLength":3840,
			"byteOffset":302676,
			"target":34962
		},
		{
			"buffer":0,
			"byteLength":3840,
			"byteOffset":306516,
			"target":34962
		},
		{
			"buffer":0,
			"byteLength":2560,
			"byteOffset":310356,
			"target":34962
		},
		{
			"buffer":0,
			"byteLength":23808,
			"byteOffset":312916,
			"target":34962
		},
		{
			"buffer":0,
			"byteLength":23808,
			"byteOffset":336724,
			"target":34962
		},
		{
			"buffer":0,
			"byteLength":15872,
			"byteOffset":360532,
			"target":34962
		},
		{
			"buffer":0,
			"byteLength":5760,
			"byteOffset":376404,
			"target":34963
		},
		{
			"buffer":0,
			"byteLength":23808,
			"byteOffset":382164,
			"target":34962
		},
		{
			"buffer":0,
			"byteLength":23808,
			"byteOffset":405972,
			"target":34962
		},
		{
			"buffer":0,
			"byteLength":15872,
			"byteOffset":429780,
			"target":34962
		},
		{
			"buffer":0,
			"byteLength":1536,
			"byteOffset":445652,
			"target":34962
		},
		{
			"buffer":0,
			"byteLength":1536,
			"byteOffset":447188,
			"target":34962
		},
		{
			"buffer":0,
			"byteLength":1024,
			"byteOffset":448724,
			"target":34962
		},
		{
			"buffer":0,
			"byteLength":372,
			"byteOffset":449748,
			"target":34963
		},
		{
			"buffer":0,
			"byteLength":23592,
			"byteOffset":450120,
			"target":34962
		},
		{
			"buffer":0,
			"byteLength":23592,
			"byteOffset":473712,
			"target":34962
		},
		{
			"buffer":0,
			"byteLength":15728,
			"byteOffset":497304,
			"target":34962
		}
	],
	"buffers":[
		{
			"byteLength":513032,
			"uri":"replace_test.bin"
		}
	]
}
