{
	"asset":{
		"generator":"Khronos glTF Blender I/O v4.4.55",
		"version":"2.0"
	},
	"extensionsUsed":[
		"KHR_lights_punctual"
	],
	"extensionsRequired":[
		"KHR_lights_punctual"
	],
	"extensions":{
		"KHR_lights_punctual":{
			"lights":[
				{
					"color":[
						1,
						1,
						1
					],
					"intensity":54351.41306588226,
					"type":"point",
					"name":"Light"
				}
			]
		}
	},
	"scene":2,
	"scenes":[
		{
			"extras":{
				"b2gd_data__":{
					"geometry":{
						"collision_data":{}
					}
				},
				"prop":1.0
			},
			"name":"Scene",
			"nodes":[
				0,
				1,
				2,
				3
			]
		},
		{
			"extras":{
				"prop":1.0,
				"more props":"viu s\u00f3, gata?"
			},
			"name":"Scene2",
			"nodes":[
				4,
				5
			]
		},
		{
			"name":"Scene3",
			"nodes":[
				6
			]
		}
	],
	"nodes":[
		{
			"mesh":0,
			"name":"Cube"
		},
		{
			"extensions":{
				"KHR_lights_punctual":{
					"light":0
				}
			},
			"name":"Light",
			"rotation":[
				-0.28416627645492554,
				0.7269423007965088,
				0.34203392267227173,
				0.5232754945755005
			],
			"translation":[
				4.076245307922363,
				5.903861999511719,
				-1.0054539442062378
			]
		},
		{
			"camera":0,
			"name":"Camera",
			"rotation":[
				-0.20997299253940582,
				0.3857799470424652,
				0.09062844514846802,
				0.8937962055206299
			],
			"translation":[
				7.358891487121582,
				4.958309173583984,
				6.925790786743164
			]
		},
		{
			"mesh":1,
			"name":"TwistedTorus",
			"translation":[
				2.3555431365966797,
				2.138120174407959,
				3.3056817054748535
			]
		},
		{
			"mesh":2,
			"name":"Suzanne"
		},
		{
			"mesh":3,
			"name":"Sphere",
			"translation":[
				-2.9205479621887207,
				1.3767743110656738,
				1.005702018737793
			]
		},
		{
			"mesh":4,
			"name":"Icosphere"
		}
	],
	"cameras":[
		{
			"name":"Camera",
			"perspective":{
				"aspectRatio":1.7777777777777777,
				"yfov":0.39959652046304894,
				"zfar":100,
				"znear":0.10000000149011612
			},
			"type":"perspective"
		}
	],
	"materials":[
		{
			"doubleSided":true,
			"name":"Material",
			"pbrMetallicRoughness":{
				"baseColorFactor":[
					0.800000011920929,
					0.800000011920929,
					0.800000011920929,
					1
				],
				"metallicFactor":0,
				"roughnessFactor":0.5
			}
		}
	],
	"meshes":[
		{
			"name":"Cube",
			"primitives":[
				{
					"attributes":{
						"POSITION":0,
						"NORMAL":1,
						"TEXCOORD_0":2
					},
					"indices":3,
					"material":0
				}
			]
		},
		{
			"extras":{
				"TwistedTorus":true,
				"change":false,
				"major_radius":1.0,
				"minor_radius":0.25,
				"major_segments":48,
				"minor_segments":12,
				"twists":1,
				"method":"MAJOR-MINOR",
				"abso_major_rad":1.0,
				"abso_minor_rad":0.5
			},
			"name":"TwistedTorus",
			"primitives":[
				{
					"attributes":{
						"POSITION":4,
						"NORMAL":5
					},
					"indices":6
				}
			]
		},
		{
			"name":"Suzanne",
			"primitives":[
				{
					"attributes":{
						"POSITION":7,
						"NORMAL":8,
						"TEXCOORD_0":9
					},
					"indices":10
				}
			]
		},
		{
			"name":"Sphere",
			"primitives":[
				{
					"attributes":{
						"POSITION":11,
						"NORMAL":12,
						"TEXCOORD_0":13
					},
					"indices":14
				}
			]
		},
		{
			"name":"Icosphere",
			"primitives":[
				{
					"attributes":{
						"POSITION":15,
						"NORMAL":16,
						"TEXCOORD_0":17
					},
					"indices":18
				}
			]
		}
	],
	"accessors":[
		{
			"bufferView":0,
			"componentType":5126,
			"count":24,
			"max":[
				1,
				1,
				1
			],
			"min":[
				-1,
				-1,
				-1
			],
			"type":"VEC3"
		},
		{
			"bufferView":1,
			"componentType":5126,
			"count":24,
			"type":"VEC3"
		},
		{
			"bufferView":2,
			"componentType":5126,
			"count":24,
			"type":"VEC2"
		},
		{
			"bufferView":3,
			"componentType":5123,
			"count":36,
			"type":"SCALAR"
		},
		{
			"bufferView":4,
			"componentType":5126,
			"count":2304,
			"max":[
				1.25,
				0.25,
				1.2500001192092896
			],
			"min":[
				-1.25,
				-0.25,
				-1.2500001192092896
			],
			"type":"VEC3"
		},
		{
			"bufferView":5,
			"componentType":5126,
			"count":2304,
			"type":"VEC3"
		},
		{
			"bufferView":6,
			"componentType":5123,
			"count":3456,
			"type":"SCALAR"
		},
		{
			"bufferView":7,
			"componentType":5126,
			"count":1966,
			"max":[
				1.3671875,
				0.984375,
				0.8515625
			],
			"min":[
				-1.3671875,
				-0.984375,
				-0.8515625
			],
			"type":"VEC3"
		},
		{
			"bufferView":8,
			"componentType":5126,
			"count":1966,
			"type":"VEC3"
		},
		{
			"bufferView":9,
			"componentType":5126,
			"count":1966,
			"type":"VEC2"
		},
		{
			"bufferView":10,
			"componentType":5123,
			"count":2904,
			"type":"SCALAR"
		},
		{
			"bufferView":11,
			"componentType":5126,
			"count":1984,
			"max":[
				0.9999997019767761,
				1,
				0.9999993443489075
			],
			"min":[
				-0.9999990463256836,
				-1,
				-1
			],
			"type":"VEC3"
		},
		{
			"bufferView":12,
			"componentType":5126,
			"count":1984,
			"type":"VEC3"
		},
		{
			"bufferView":13,
			"componentType":5126,
			"count":1984,
			"type":"VEC2"
		},
		{
			"bufferView":14,
			"componentType":5123,
			"count":2880,
			"type":"SCALAR"
		},
		{
			"bufferView":15,
			"componentType":5126,
			"count":240,
			"max":[
				0.9510578513145447,
				1,
				0.9999999403953552
			],
			"min":[
				-0.9510578513145447,
				-1,
				-0.9999999403953552
			],
			"type":"VEC3"
		},
		{
			"bufferView":16,
			"componentType":5126,
			"count":240,
			"type":"VEC3"
		},
		{
			"bufferView":17,
			"componentType":5126,
			"count":240,
			"type":"VEC2"
		},
		{
			"bufferView":18,
			"componentType":5123,
			"count":240,
			"type":"SCALAR"
		}
	],
	"bufferViews":[
		{
			"buffer":0,
			"byteLength":288,
			"byteOffset":0,
			"target":34962
		},
		{
			"buffer":0,
			"byteLength":288,
			"byteOffset":288,
			"target":34962
		},
		{
			"buffer":0,
			"byteLength":192,
			"byteOffset":576,
			"target":34962
		},
		{
			"buffer":0,
			"byteLength":72,
			"byteOffset":768,
			"target":34963
		},
		{
			"buffer":0,
			"byteLength":27648,
			"byteOffset":840,
			"target":34962
		},
		{
			"buffer":0,
			"byteLength":27648,
			"byteOffset":28488,
			"target":34962
		},
		{
			"buffer":0,
			"byteLength":6912,
			"byteOffset":56136,
			"target":34963
		},
		{
			"buffer":0,
			"byteLength":23592,
			"byteOffset":63048,
			"target":34962
		},
		{
			"buffer":0,
			"byteLength":23592,
			"byteOffset":86640,
			"target":34962
		},
		{
			"buffer":0,
			"byteLength":15728,
			"byteOffset":110232,
			"target":34962
		},
		{
			"buffer":0,
			"byteLength":5808,
			"byteOffset":125960,
			"target":34963
		},
		{
			"buffer":0,
			"byteLength":23808,
			"byteOffset":131768,
			"target":34962
		},
		{
			"buffer":0,
			"byteLength":23808,
			"byteOffset":155576,
			"target":34962
		},
		{
			"buffer":0,
			"byteLength":15872,
			"byteOffset":179384,
			"target":34962
		},
		{
			"buffer":0,
			"byteLength":5760,
			"byteOffset":195256,
			"target":34963
		},
		{
			"buffer":0,
			"byteLength":2880,
			"byteOffset":201016,
			"target":34962
		},
		{
			"buffer":0,
			"byteLength":2880,
			"byteOffset":203896,
			"target":34962
		},
		{
			"buffer":0,
			"byteLength":1920,
			"byteOffset":206776,
			"target":34962
		},
		{
			"buffer":0,
			"byteLength":480,
			"byteOffset":208696,
			"target":34963
		}
	],
	"buffers":[
		{
			"byteLength":209176,
			"uri":"multiple%20scenes.bin"
		}
	]
}
